<svg height="34" width="34" xmlns="http://www.w3.org/2000/svg"><g fill-rule="evenodd"><path d="m2.001 0h29.999c1.105 0 2.001.896 2.001 2v30c0 1.105-.896 2-2.001 2h-29.999c-1.106 0-2-.895-2-2v-30c0-1.104.894-2 2-2z" fill="#d0ebfa"/><g fill="#2aa3e6"><path d="m27 20h-20c-1.105 0-2-.895-2-2s.895-2 2-2h20c1.105 0 2 .895 2 2s-.895 2-2 2zm0-9h-20c-1.105 0-2-.895-2-2s.895-2 2-2h20c1.105 0 2 .895 2 2s-.895 2-2 2zm-20 14h20c1.105 0 2 .895 2 2s-.895 2-2 2h-20c-1.105 0-2-.895-2-2s.895-2 2-2z" opacity=".6"/><path d="m21 13c-2.209 0-4-1.791-4-4s1.791-4 4-4 4 1.791 4 4-1.791 4-4 4zm-8 9c-2.209 0-4-1.791-4-4s1.791-4 4-4 4 1.791 4 4-1.791 4-4 4zm8 1c2.209 0 4 1.791 4 4s-1.791 4-4 4-4-1.791-4-4 1.791-4 4-4z"/></g></g></svg>