<svg height="26" width="36" xmlns="http://www.w3.org/2000/svg"><g fill="#16b297" fill-rule="evenodd"><path d="m14.819 26c-.379-.005-.753-.097-1.1-.271l-.183-.106-7.301-3.812h-2.073c-2.263.029-4.123-2.051-4.162-4.656v-8.314c.04-2.603 1.901-4.678 4.162-4.641h2.073l7.484-3.933c.74-.399 1.603-.348 2.304.136.63.464 1.004 1.278.981 2.14v20.91c.023.867-.35 1.684-.981 2.155-.361.26-.779.396-1.204.392z"/><path d="m23 26c-1.105 0-2-.895-2-2s.895-2 2-2c4.971 0 9-4.029 9-9s-4.029-9-9-9c-1.105 0-2-.895-2-2s.895-2 2-2c7.18 0 13 5.82 13 13s-5.82 13-13 13zm-12-18.001v10.002c-.643-1.54-1-3.228-1-5.001s.357-3.461 1-5.001z" opacity=".6"/><path d="m23.403 17.959c-.13.027-.265.041-.403.041-1.105 0-2-.895-2-2s.895-2 2-2c.552 0 1-.448 1-1s-.448-1-1-1c-1.105 0-2-.895-2-2s.895-2 2-2c.138 0 .273.014.403.041 2.57.208 4.597 2.336 4.597 4.959s-2.027 4.751-4.597 4.959z" opacity=".8"/></g></svg>