<svg height="34" width="34" xmlns="http://www.w3.org/2000/svg"><g fill="#16b297" fill-rule="evenodd"><path d="m2.001 0h29.999c1.105 0 2.001.896 2.001 2v30c0 1.105-.896 2-2.001 2h-29.999c-1.106 0-2-.895-2-2v-30c0-1.104.894-2 2-2z" opacity=".2"/><path d="m26.959 22.403c-.205 2.016-1.887 3.597-3.959 3.597-2.209 0-3.999-1.792-3.999-4 0-2.209 1.79-3.999 3.999-3.999v-8.001h-9.999v13c0 .155-.022.305-.056.45.026.182.056.362.056.55 0 2.209-1.792 4-4 4-2.21 0-4.002-1.791-4.002-4s1.792-4 4.002-4v-12c0-1.104.895-2 2-2h14c1.104 0 1.998.896 1.998 2v14c0 .138-.014.273-.04.403z" opacity=".6"/><path d="m23 26c-2.209 0-3.999-1.792-3.999-4 0-2.209 1.79-3.999 3.999-3.999 2.21 0 3.999 1.79 3.999 3.999 0 2.208-1.789 4-3.999 4zm-13.999 2c-2.21 0-4.002-1.791-4.002-4s1.792-4 4.002-4c2.208 0 4 1.791 4 4s-1.792 4-4 4z"/></g></svg>