<svg height="68" width="66" xmlns="http://www.w3.org/2000/svg"><path d="m63.049 17.091c-3.19-6.012-8.128-10.95-14.14-14.14 1.811-1.822 4.319-2.951 7.091-2.951 5.523 0 10 4.477 10 10 0 2.772-1.129 5.28-2.951 7.091zm-2.049 15.909c0 9.385-4.634 17.671-11.721 22.751l4.319 7.639c.829 1.466.337 3.34-1.098 4.186s-3.27.344-4.098-1.122l-4.365-7.721c-3.388 1.455-7.116 2.267-11.037 2.267s-7.649-.812-11.037-2.267l-4.365 7.721c-.828 1.466-2.663 1.968-4.098 1.122s-1.927-2.72-1.098-4.186l4.319-7.639c-7.087-5.08-11.721-13.366-11.721-22.751 0-15.464 12.536-28 28-28s28 12.536 28 28zm-28-22c-12.15 0-22 9.85-22 22s9.85 22 22 22 22-9.85 22-22-9.85-22-22-22zm11 25h-10c-.171 0-.337-.023-.5-.05-.163.027-.329.05-.5.05-1.657 0-3-1.343-3-3v-13c0-1.657 1.343-3 3-3s3 1.343 3 3v10h8c1.657 0 3 1.343 3 3s-1.343 3-3 3zm-41.049-18.909c-1.822-1.811-2.951-4.319-2.951-7.091 0-5.523 4.477-10 10-10 2.772 0 5.28 1.129 7.091 2.951-6.012 3.19-10.95 8.128-14.14 14.14z" fill="#fff" fill-rule="evenodd"/></svg>